<?xml version="1.0" encoding="UTF-8" standalone="no"?>
<svg
   xmlns:dc="http://purl.org/dc/elements/1.1/"
   xmlns:cc="http://creativecommons.org/ns#"
   xmlns:rdf="http://www.w3.org/1999/02/22-rdf-syntax-ns#"
   xmlns:svg="http://www.w3.org/2000/svg"
   xmlns="http://www.w3.org/2000/svg"
   xmlns:sodipodi="http://sodipodi.sourceforge.net/DTD/sodipodi-0.dtd"
   xmlns:inkscape="http://www.inkscape.org/namespaces/inkscape"
   height="182.81"
   width="244.89999"
   xml:space="preserve"
   viewBox="0 0 244.89999 182.81"
   y="0px"
   x="0px"
   id="Layer_1"
   version="1.1"
   sodipodi:docname="mountain-only.svg"
   inkscape:version="0.92.5 (2060ec1f9f, 2020-04-08)"><sodipodi:namedview
   pagecolor="#ffffff"
   bordercolor="#666666"
   borderopacity="1"
   objecttolerance="10"
   gridtolerance="10"
   guidetolerance="10"
   inkscape:pageopacity="0"
   inkscape:pageshadow="2"
   inkscape:window-width="1848"
   inkscape:window-height="1016"
   id="namedview6186"
   showgrid="false"
   fit-margin-top="20"
   fit-margin-bottom="20"
   fit-margin-right="20"
   fit-margin-left="20"
   inkscape:zoom="2.7812867"
   inkscape:cx="135.52871"
   inkscape:cy="80.97072"
   inkscape:window-x="72"
   inkscape:window-y="27"
   inkscape:window-maximized="1"
   inkscape:current-layer="Layer_1" /><metadata
   id="metadata1022"><rdf:RDF><cc:Work
       rdf:about=""><dc:format>image/svg+xml</dc:format><dc:type
         rdf:resource="http://purl.org/dc/dcmitype/StillImage" /><dc:title></dc:title></cc:Work></rdf:RDF></metadata><defs
   id="defs1020">
	
	
</defs>
<style
   id="style963"
   type="text/css">
	.st0{fill:#1A1A1A;}
	.st1{fill:#E1B284;}
</style>

<g
   id="g1013"
   transform="translate(-377.55,-361.53)">
		<g
   id="g1007">
			<path
   inkscape:connector-curvature="0"
   class="st1"
   d="m 539.38,520.03 h -43 l 22.84,-22.13 z m 54.65,-9.42 -44.48,-48.09 -30.13,29.21 -48.23,-52.95 -65.26,71.65 -3.73,4.09 c 0.5,1.57 1.01,3.11 1.57,4.65 l 3.63,-3.98 63.79,-70.04 45.13,49.57 -30.55,29.62 h 63.34 l -26.8,-29.42 27.09,-26.24 43.17,46.67 3.63,3.91 c 0.57,-1.52 1.08,-3.06 1.57,-4.62 z"
   id="path1001"
   style="fill:#e1b284" />
			<polygon
   class="st1"
   points="473.24,465.01 474.1,476.57 468.26,465.84 458.39,469.02 471.18,455.11 483.2,469.02 "
   id="polygon1003"
   style="fill:#e1b284" />
			<polygon
   class="st1"
   points="548.36,481.06 547.81,487.91 551.59,481.55 557.97,483.44 549.7,475.19 541.92,483.44 "
   id="polygon1005"
   style="fill:#e1b284" />
		</g>
		<g
   id="g1011">
			<path
   inkscape:connector-curvature="0"
   class="st1"
   d="m 500,381.53 c -56.49,0 -102.45,45.96 -102.45,102.45 0,10.63 1.63,20.89 4.65,30.54 0.5,1.57 1.01,3.11 1.57,4.65 l 3.63,-3.98 c -0.53,-1.56 -1.03,-3.15 -1.47,-4.76 -2.37,-8.4 -3.64,-17.28 -3.64,-26.45 0,-53.89 43.84,-97.73 97.71,-97.73 53.89,0 97.73,43.84 97.73,97.73 0,9.23 -1.29,18.17 -3.7,26.63 -0.44,1.61 -0.94,3.18 -1.47,4.74 l 3.63,3.91 c 0.57,-1.52 1.08,-3.06 1.57,-4.62 3.04,-9.68 4.69,-19.97 4.69,-30.66 0,-56.49 -45.96,-102.45 -102.45,-102.45 z"
   id="path1009"
   style="fill:#e1b284" />
		</g>
	</g>
</svg>