<?xml version="1.0" standalone="no"?>
<!DOCTYPE svg PUBLIC "-//W3C//DTD SVG 20010904//EN"
 "http://www.w3.org/TR/2001/REC-SVG-20010904/DTD/svg10.dtd">
<svg version="1.0" xmlns="http://www.w3.org/2000/svg"
 width="1000.000000pt" height="1000.000000pt" viewBox="0 0 1000.000000 1000.000000"
 preserveAspectRatio="xMidYMid meet">
<metadata>
Created by potrace 1.14, written by Peter Selinger 2001-2017
</metadata>
<g transform="translate(0.000000,1000.000000) scale(0.100000,-0.100000)"
fill="#000000" stroke="none">
<path d="M0 5000 l0 -5000 5000 0 5000 0 0 5000 0 5000 -5000 0 -5000 0 0
-5000z m5450 2865 c832 -95 1570 -412 2225 -956 138 -115 400 -380 519 -526
487 -596 796 -1288 905 -2023 63 -424 59 -884 -10 -1295 -46 -272 -174 -752
-199 -743 -4 2 -66 66 -136 143 -572 622 -1749 1890 -1755 1890 -10 0 -1089
-1045 -1089 -1055 0 -4 241 -272 537 -596 l536 -589 -636 -3 c-349 -1 -924 -1
-1277 0 l-641 3 428 414 c235 228 512 497 616 598 l187 183 -911 1000 c-501
550 -913 1000 -917 999 -4 0 -594 -646 -1312 -1436 -718 -789 -1330 -1462
-1361 -1496 l-56 -61 -26 79 c-68 205 -130 452 -166 670 -75 440 -73 936 4
1385 194 1122 842 2112 1795 2745 493 328 1020 538 1594 634 148 25 237 36
466 55 98 8 553 -4 680 -19z m-1374 -3233 c127 -147 228 -268 225 -270 -4 -1
-89 31 -191 72 -139 56 -186 71 -188 60 -2 -8 4 -107 13 -220 8 -114 14 -209
11 -211 -2 -2 -45 73 -95 166 -51 94 -102 188 -114 209 l-22 39 -150 -48 c-82
-27 -172 -56 -200 -64 l-49 -15 40 42 c22 24 139 150 259 281 120 131 220 235
224 232 3 -4 110 -126 237 -273z m3260 -859 c-1 -2 -58 13 -125 33 -67 20
-124 34 -125 32 -2 -1 -35 -57 -74 -123 l-72 -120 1 45 c0 25 4 83 9 130 4 47
7 86 6 87 -2 2 -56 -17 -122 -41 -65 -24 -121 -42 -123 -40 -2 2 65 76 150
164 l153 161 163 -163 c89 -89 161 -163 159 -165z"/>
<path d="M4780 7694 c-144 -10 -368 -38 -490 -60 -1604 -295 -2866 -1547
-3174 -3149 -53 -277 -61 -376 -61 -740 0 -354 7 -447 56 -714 22 -121 68
-320 79 -340 5 -9 414 434 1325 1434 l1318 1447 32 -34 c18 -18 450 -492 960
-1053 510 -561 935 -1028 944 -1038 16 -16 51 17 626 574 l610 590 45 -48 c25
-26 430 -463 899 -970 469 -508 854 -923 856 -923 7 0 75 299 94 415 59 351
69 810 25 1155 -191 1493 -1219 2755 -2640 3243 -280 96 -562 159 -854 192
-139 15 -534 27 -650 19z"/>
<path d="M5320 2738 c-250 -243 -456 -446 -458 -450 -2 -4 386 -8 863 -8 719
0 865 2 858 13 -8 13 -803 887 -807 887 0 -1 -206 -200 -456 -442z"/>
</g>
</svg>
